<svg width="265" height="74" viewBox="0 0 265 74" fill="none" xmlns="http://www.w3.org/2000/svg">
<path d="M135.077 8.99544C99.655 6.42141 58.5006 8.87026 32.4488 15.983C6.30494 23.121 -0.435883 34.3209 5.63633 44.3361C10.9205 53.0515 35.773 59.4543 61.8971 64.5534C83.2438 68.7201 109.123 68.7488 135.077 69.6013C167.059 70.6519 201.823 69.8415 227.724 64.5534C255.01 58.9829 265.543 46.0482 258.372 36.8869" stroke="#D07101"/>
<path d="M206.059 68.5C236.063 62.0953 262.165 61 263.559 46.5C264.487 36.8398 261.207 25.7891 235.559 18C208.428 9.76077 181.407 5.9669 135.559 6C94.0586 6 43.5164 9.47191 18.5588 18C-5.12932 26.0943 0.0592861 42 6.05922 47" stroke="#00CBC2"/>
<path d="M24.1545 58.48C21.2345 58.48 18.6345 57.98 16.3545 56.98C14.0745 55.98 12.2745 54.62 10.9545 52.9C9.63445 51.14 8.89445 49.18 8.73445 47.02H18.8745C18.9945 48.18 19.5345 49.12 20.4945 49.84C21.4545 50.56 22.6345 50.92 24.0345 50.92C25.3145 50.92 26.2945 50.68 26.9745 50.2C27.6945 49.68 28.0545 49.02 28.0545 48.22C28.0545 47.26 27.5545 46.56 26.5545 46.12C25.5545 45.64 23.9345 45.12 21.6945 44.56C19.2945 44 17.2945 43.42 15.6945 42.82C14.0945 42.18 12.7145 41.2 11.5545 39.88C10.3945 38.52 9.81445 36.7 9.81445 34.42C9.81445 32.5 10.3345 30.76 11.3745 29.2C12.4545 27.6 14.0145 26.34 16.0545 25.42C18.1345 24.5 20.5945 24.04 23.4345 24.04C27.6345 24.04 30.9345 25.08 33.3345 27.16C35.7745 29.24 37.1745 32 37.5345 35.44H28.0545C27.8945 34.28 27.3745 33.36 26.4945 32.68C25.6545 32 24.5345 31.66 23.1345 31.66C21.9345 31.66 21.0145 31.9 20.3745 32.38C19.7345 32.82 19.4145 33.44 19.4145 34.24C19.4145 35.2 19.9145 35.92 20.9145 36.4C21.9545 36.88 23.5545 37.36 25.7145 37.84C28.1945 38.48 30.2145 39.12 31.7745 39.76C33.3345 40.36 34.6945 41.36 35.8545 42.76C37.0545 44.12 37.6745 45.96 37.7145 48.28C37.7145 50.24 37.1545 52 36.0345 53.56C34.9545 55.08 33.3745 56.28 31.2945 57.16C29.2545 58.04 26.8745 58.48 24.1545 58.48ZM59.2315 58.48C55.9515 58.48 52.9915 57.78 50.3515 56.38C47.7515 54.98 45.6915 52.98 44.1715 50.38C42.6915 47.78 41.9515 44.74 41.9515 41.26C41.9515 37.82 42.7115 34.8 44.2315 32.2C45.7515 29.56 47.8315 27.54 50.4715 26.14C53.1115 24.74 56.0715 24.04 59.3515 24.04C62.6315 24.04 65.5915 24.74 68.2315 26.14C70.8715 27.54 72.9515 29.56 74.4715 32.2C75.9915 34.8 76.7515 37.82 76.7515 41.26C76.7515 44.7 75.9715 47.74 74.4115 50.38C72.8915 52.98 70.7915 54.98 68.1115 56.38C65.4715 57.78 62.5115 58.48 59.2315 58.48ZM59.2315 49.6C61.1915 49.6 62.8515 48.88 64.2115 47.44C65.6115 46 66.3115 43.94 66.3115 41.26C66.3115 38.58 65.6315 36.52 64.2715 35.08C62.9515 33.64 61.3115 32.92 59.3515 32.92C57.3515 32.92 55.6915 33.64 54.3715 35.08C53.0515 36.48 52.3915 38.54 52.3915 41.26C52.3915 43.94 53.0315 46 54.3115 47.44C55.6315 48.88 57.2715 49.6 59.2315 49.6ZM92.4546 13.6V58H82.1946V13.6H92.4546ZM132.95 24.52V58H122.69V53.44C121.65 54.92 120.23 56.12 118.43 57.04C116.67 57.92 114.71 58.36 112.55 58.36C109.99 58.36 107.73 57.8 105.77 56.68C103.81 55.52 102.29 53.86 101.21 51.7C100.13 49.54 99.5899 47 99.5899 44.08V24.52H109.79V42.7C109.79 44.94 110.37 46.68 111.53 47.92C112.69 49.16 114.25 49.78 116.21 49.78C118.21 49.78 119.79 49.16 120.95 47.92C122.11 46.68 122.69 44.94 122.69 42.7V24.52H132.95ZM158.98 49.3V58H153.76C150.04 58 147.14 57.1 145.06 55.3C142.98 53.46 141.94 50.48 141.94 46.36V33.04H137.86V24.52H141.94V16.36H152.2V24.52H158.92V33.04H152.2V46.48C152.2 47.48 152.44 48.2 152.92 48.64C153.4 49.08 154.2 49.3 155.32 49.3H158.98ZM169.855 21.04C168.055 21.04 166.575 20.52 165.415 19.48C164.295 18.4 163.735 17.08 163.735 15.52C163.735 13.92 164.295 12.6 165.415 11.56C166.575 10.48 168.055 9.94 169.855 9.94C171.615 9.94 173.055 10.48 174.175 11.56C175.335 12.6 175.915 13.92 175.915 15.52C175.915 17.08 175.335 18.4 174.175 19.48C173.055 20.52 171.615 21.04 169.855 21.04ZM174.955 24.52V58H164.695V24.52H174.955ZM197.63 58.48C194.35 58.48 191.39 57.78 188.75 56.38C186.15 54.98 184.09 52.98 182.57 50.38C181.09 47.78 180.35 44.74 180.35 41.26C180.35 37.82 181.11 34.8 182.63 32.2C184.15 29.56 186.23 27.54 188.87 26.14C191.51 24.74 194.47 24.04 197.75 24.04C201.03 24.04 203.99 24.74 206.63 26.14C209.27 27.54 211.35 29.56 212.87 32.2C214.39 34.8 215.15 37.82 215.15 41.26C215.15 44.7 214.37 47.74 212.81 50.38C211.29 52.98 209.19 54.98 206.51 56.38C203.87 57.78 200.91 58.48 197.63 58.48ZM197.63 49.6C199.59 49.6 201.25 48.88 202.61 47.44C204.01 46 204.71 43.94 204.71 41.26C204.71 38.58 204.03 36.52 202.67 35.08C201.35 33.64 199.71 32.92 197.75 32.92C195.75 32.92 194.09 33.64 192.77 35.08C191.45 36.48 190.79 38.54 190.79 41.26C190.79 43.94 191.43 46 192.71 47.44C194.03 48.88 195.67 49.6 197.63 49.6ZM240.993 24.16C244.913 24.16 248.033 25.44 250.353 28C252.713 30.52 253.893 34 253.893 38.44V58H243.693V39.82C243.693 37.58 243.113 35.84 241.953 34.6C240.793 33.36 239.233 32.74 237.273 32.74C235.313 32.74 233.753 33.36 232.593 34.6C231.433 35.84 230.853 37.58 230.853 39.82V58H220.593V24.52H230.853V28.96C231.893 27.48 233.293 26.32 235.053 25.48C236.813 24.6 238.793 24.16 240.993 24.16Z" fill="black"/>
</svg>
